<svg xmlns="http://www.w3.org/2000/svg" viewBox="0 0 69.07 43.12"><defs><style>.cls-1{fill:#037;}</style></defs><g id="Layer_2" data-name="Layer 2"><g id="Layer_1-2" data-name="Layer 1"><path class="cls-1" d="M11.71,21V37.61a1.5,1.5,0,0,0,3,0V21a1.5,1.5,0,0,0-3,0Z"/><path class="cls-1" d="M.52,1.45.21,17.16a60.46,60.46,0,0,0-.1,7.73c.26,2.4,2.21,3.05,4.29,3.44a67.76,67.76,0,0,0,15.17,1.14c2.15-.08,4.49-.1,6.44-1.09a6.49,6.49,0,0,0,3.17-4.77c.46-2.35.72-4.76,1.08-7.14.31-2.13.55-4.43,1.63-6.34.87-1.56,2.61-3,4.52-2.56C38,8,38.88,9.52,39.46,10.88c1.5,3.51,1.92,7.83,2,11.6.06,4-.64,8.32-3.32,11.42C36.8,35.44,34.54,37,32.46,36c-1.66-.77-2.38-2.76-2.79-4.42-1.26-5.15-.93-11-.24-16.18a1.5,1.5,0,1,0-3,0,53,53,0,0,0,.08,15.66c.62,3.66,2.52,7.75,6.66,8.2,4.49.49,8-3.58,9.6-7.31,1.77-4.1,1.92-8.67,1.44-13-.43-3.81-.92-8.26-3.24-11.45A6.51,6.51,0,0,0,30.8,6.64c-3.45,3.4-3.46,9.16-4.12,13.63C26.37,22.36,26.37,25.2,24,26s-5.17.56-7.58.54a64.18,64.18,0,0,1-9.29-.75c-.72-.11-1.44-.24-2.16-.38-.37-.07-1.45-.12-1.73-.44s-.15-1.53-.14-2.06l0-2.24.39-19.2c0-1.93-3-1.93-3,0Z"/><path class="cls-1" d="M41.51,20.46c.43,1.81.17,3.71.6,5.53a5.57,5.57,0,0,0,4,4.14c2.17.63,4.66.4,6.88.35,2.57-.06,5.14-.21,7.7-.43,1.91-.17,1.92-3.17,0-3q-3.4.3-6.82.41a35.31,35.31,0,0,1-6.17-.05,2.91,2.91,0,0,1-2.75-2.69c-.26-1.68-.11-3.38-.5-5-.45-1.88-3.34-1.09-2.9.79Z"/><path class="cls-1" d="M47.91,6.75l.46,10.88.21,5.23a14,14,0,0,0,.53,4.28c1.23,3.39,4.64,3,7.63,3H67.62a1.5,1.5,0,0,0,0-3H58.05c-1.49,0-3,0-4.46,0-1.31,0-1.71-.72-1.88-1.95-.4-2.9-.28-5.95-.4-8.87l-.4-9.58c-.08-1.92-3.08-1.93-3,0Z"/><path class="cls-1" d="M60.78,14.06l.46,14.83c.08,2.45.14,4.9.23,7.35a17,17,0,0,0,1.15,6.15,1.51,1.51,0,0,0,2.05.54,1.54,1.54,0,0,0,.54-2c-.8-1.89-.72-4-.78-6.05l-.22-6.93-.43-13.84c-.06-1.93-3.06-1.94-3,0Z"/></g></g></svg>