<svg width="37" height="37" viewBox="0 0 37 37" fill="none" xmlns="http://www.w3.org/2000/svg">
<path d="M6.5 6.5H25.5C28.3 6.5 30.5 8.7 30.5 11.5V30.5C30.5 33.3 28.3 35.5 25.5 35.5H6.5C3.7 35.5 1.5 33.3 1.5 30.5V11.5C1.5 8.7 3.7 6.5 6.5 6.5Z" fill="white"/>
<path d="M30.5 19.9V30.5C30.5 33.3 28.3 35.5 25.5 35.5H6.5C3.7 35.5 1.5 33.3 1.5 30.5V11.5C1.5 8.7 3.7 6.5 6.5 6.5H25" stroke="#7C7C7C" stroke-width="3"/>
<path d="M32 2L16.5 22.5L7.3 13.3L3 17.6L17.2 31.8L37 6.2L32 2Z" fill="#F7B733"/>
</svg>
