<svg width="20" height="11" viewBox="0 0 20 11" fill="none" xmlns="http://www.w3.org/2000/svg">
<path d="M1.35552 0.380485C1.23911 0.496599 1.14675 0.634538 1.08373 0.786401C1.02072 0.938264 0.988281 1.10107 0.988281 1.26549C0.988281 1.4299 1.02072 1.59271 1.08373 1.74457C1.14675 1.89643 1.23911 2.03437 1.35552 2.15049L9.66552 10.4605C9.75803 10.5532 9.86792 10.6267 9.98889 10.6769C10.1099 10.7271 10.2395 10.7529 10.3705 10.7529C10.5015 10.7529 10.6312 10.7271 10.7521 10.6769C10.8731 10.6267 10.983 10.5532 11.0755 10.4605L19.3855 2.15048C19.8755 1.66048 19.8755 0.870484 19.3855 0.380484C18.8955 -0.109516 18.1055 -0.109516 17.6155 0.380484L10.3655 7.62048L3.11552 0.370486C2.63552 -0.109513 1.83552 -0.109515 1.35552 0.380485Z" fill="#243B71"/>
</svg>
