<svg width="20" height="11" viewBox="0 0 20 11" fill="none" xmlns="http://www.w3.org/2000/svg">
<path d="M19.3857 10.3842C19.5021 10.268 19.5945 10.1301 19.6575 9.97825C19.7205 9.82638 19.7529 9.66358 19.7529 9.49916C19.7529 9.33474 19.7205 9.17194 19.6575 9.02008C19.5945 8.86822 19.5021 8.73028 19.3857 8.61416L11.0757 0.304163C10.9832 0.211459 10.8733 0.137911 10.7523 0.08773C10.6313 0.0375485 10.5017 0.0117183 10.3707 0.0117183C10.2397 0.0117183 10.11 0.0375485 9.98907 0.08773C9.8681 0.137911 9.75821 0.211459 9.6657 0.304163L1.35569 8.61416C0.865694 9.10416 0.865694 9.89416 1.35569 10.3842C1.84569 10.8742 2.63569 10.8742 3.12569 10.3842L10.3757 3.14416L17.6257 10.3942C18.1057 10.8742 18.9057 10.8742 19.3857 10.3842Z" fill="#243B71"/>
</svg>
